<svg id="Fill_Expanded" data-name="Fill Expanded" xmlns="http://www.w3.org/2000/svg" viewBox="0 0 679.06 61.03"><g id="Fill_copy_2" data-name="Fill copy 2"><path d="M428.53,63.51C424.65,62.75,403,75.9,406.89,83.6c.08.13.34.8,1,0a52.45,52.45,0,0,1,5.45-5.89c2.28-2.06,7.75-6.12,7.75-6.12a11.74,11.74,0,0,0-2.41,6.74c-.05.18-.11.38-.16.61l0,.27c0,.18,0,.25,0,.43l-.05.29A25.16,25.16,0,0,1,409,95.7c-9.8,7.8-22.95,7.64-29.31-.35-3.56-4.48-4.48-10.12-2.43-16.21l.27-.53c0-.12.1-.25.14-.37,3.19-4,8.48-11.32,8.69-12.14a2.39,2.39,0,0,0-1.9-2.45c-3.89-.76-25.57,12.39-21.64,20.09.08.13.33.8,1,0a52,52,0,0,1,5.44-5.89c2.29-2.06,7.75-6.12,7.75-6.12a11.26,11.26,0,0,0-2.28,5.46c-10.75,12-12,28.76-2.59,38.19,9.86,9.86,27.67,8,39.77-4.07C421,102.13,424.29,89.6,421,79.8l-.21-.48c2.91-3.51,9.45-12.45,9.68-13.36A2.39,2.39,0,0,0,428.53,63.51Z" transform="translate(-87.22 -61.13)" fill="#cf7911"/><path d="M378.29,105.69c8,8,22.41,6.51,32.22-3.3,6.81-6.81,9.59-15.85,8-23.41-.06.29-.12.61-.18,1h0a24.92,24.92,0,0,1-9.41,15.67c-9.77,7.77-22.82,7.62-29.14-.33-3.65-4.58-4.26-10.76-2.26-16.66C371.58,87.83,371.61,99,378.29,105.69Z" transform="translate(-87.22 -61.13)" fill="#53baed"/><path d="M409.17,90.38s-4.38,3.7-8.67,2.15a6.42,6.42,0,0,1-4.29-8.27c1-3.32,2.31-4.62,6-7.3s9-6.74,5.33-12.66c-3.46-5.56-14.09-3.15-19.95,7.07-6,10.47-4.22,22.64,5.41,24.89C404.08,98.83,409.17,90.38,409.17,90.38Z" transform="translate(-87.22 -61.13)" fill="#cf7911"/></g><g id="Text"><path d="M88.33,120.63a3.7,3.7,0,0,1-1.11-2.72V65.46a3.83,3.83,0,0,1,1.11-2.76,3.6,3.6,0,0,1,2.72-1.15A3.93,3.93,0,0,1,95,65.46V88.07h32.21V65.46a3.83,3.83,0,0,1,1.11-2.76A3.6,3.6,0,0,1,131,61.55a3.93,3.93,0,0,1,3.91,3.91v52.45a3.63,3.63,0,0,1-1.15,2.72,3.86,3.86,0,0,1-2.76,1.1,3.77,3.77,0,0,1-3.83-3.82V95.3H95v22.61a3.63,3.63,0,0,1-1.15,2.72,3.86,3.86,0,0,1-2.76,1.1A3.7,3.7,0,0,1,88.33,120.63Z" transform="translate(-87.22 -61.13)" fill="#0c7bb3"/><path d="M178.21,120.63a3.82,3.82,0,0,1-1.06-2.72,4.49,4.49,0,0,1,.43-1.7L199.25,65a6.51,6.51,0,0,1,1.92-2.51,4.69,4.69,0,0,1,3-1H205a4.72,4.72,0,0,1,3,1A6.49,6.49,0,0,1,210,65l21.68,51.17a4.64,4.64,0,0,1,.42,1.7,3.78,3.78,0,0,1-1.06,2.72,3.68,3.68,0,0,1-2.76,1.1,3.84,3.84,0,0,1-2.17-.64,4,4,0,0,1-1.49-1.74l-5.52-13.26h-28.9l-5.53,13.26a4,4,0,0,1-1.48,1.74,3.88,3.88,0,0,1-2.17.64A3.69,3.69,0,0,1,178.21,120.63ZM193.13,99h23L204.61,71.41Z" transform="translate(-87.22 -61.13)" fill="#0c7bb3"/><path d="M275.41,120.63a3.7,3.7,0,0,1-1.1-2.72v-52a3.84,3.84,0,0,1,1.1-2.77A3.64,3.64,0,0,1,278.13,62h19.81q11.55,0,17.34,4.76a15.41,15.41,0,0,1,5.78,12.49,16.26,16.26,0,0,1-2.85,9.31,15.91,15.91,0,0,1-8.29,6.08,11.67,11.67,0,0,1,8.37,7.6A33.4,33.4,0,0,1,320.55,114v3.91a3.77,3.77,0,0,1-3.83,3.82,3.85,3.85,0,0,1-2.85-1.06,3.73,3.73,0,0,1-1.06-2.76v-2.55a38,38,0,0,0-.76-7.87,12.67,12.67,0,0,0-3.66-6.46c-1.93-1.89-4.84-2.84-8.75-2.84H282v19.72a3.63,3.63,0,0,1-1.15,2.72,3.84,3.84,0,0,1-2.76,1.1A3.72,3.72,0,0,1,275.41,120.63Zm22-29.75q7.31,0,11.6-2.89a9.28,9.28,0,0,0,4.29-8.16,9.1,9.1,0,0,0-3.7-7.82q-3.69-2.73-12.62-2.72H282V90.88Z" transform="translate(-87.22 -61.13)" fill="#0c7bb3"/><path d="M466.74,118.08a3.9,3.9,0,0,1-1.7-1.41,3.62,3.62,0,0,1,.3-4.59,3.28,3.28,0,0,1,2.51-1.06,4,4,0,0,1,1.61.34,40.61,40.61,0,0,0,16.75,3.49q14.88,0,14.87-9.78a5.44,5.44,0,0,0-1.91-4.25,14,14,0,0,0-4.72-2.68q-2.81-1-8-2.33a100.64,100.64,0,0,1-11.13-3.45,19.38,19.38,0,0,1-7.31-5A12.51,12.51,0,0,1,465,78.55a15.91,15.91,0,0,1,2.55-8.8A17.6,17.6,0,0,1,475,63.46,28,28,0,0,1,487,61.13a48.39,48.39,0,0,1,16.92,2.8,3.32,3.32,0,0,1,2.38,3.4,3.71,3.71,0,0,1-.94,2.47,3.07,3.07,0,0,1-2.46,1.1,3.86,3.86,0,0,1-1.36-.34,41.54,41.54,0,0,0-13.69-2.29q-6.7,0-10.92,2.55A8,8,0,0,0,472.69,78a6.58,6.58,0,0,0,2,5,13.61,13.61,0,0,0,5,3,79.58,79.58,0,0,0,8.2,2.26,84.25,84.25,0,0,1,10.84,3.23,17.66,17.66,0,0,1,7.05,5q2.94,3.41,2.93,9.18a14.2,14.2,0,0,1-2.72,8.54,17.7,17.7,0,0,1-7.65,5.91A28.47,28.47,0,0,1,487,122.16,50.44,50.44,0,0,1,466.74,118.08Z" transform="translate(-87.22 -61.13)" fill="#0c7bb3"/><path d="M551.49,120.63a3.7,3.7,0,0,1-1.11-2.72v-52a3.85,3.85,0,0,1,1.11-2.77A3.62,3.62,0,0,1,554.21,62h19.38q8.07,0,13.17,2.72a16.72,16.72,0,0,1,7.31,7,20.17,20.17,0,0,1,0,18.36,16.83,16.83,0,0,1-7.31,7q-5.1,2.72-13.17,2.72H558.12v18.19a3.63,3.63,0,0,1-1.15,2.72,3.86,3.86,0,0,1-2.76,1.1A3.7,3.7,0,0,1,551.49,120.63Zm21.33-28.22q8.67,0,12.2-3.32a11.39,11.39,0,0,0,0-16.49q-3.53-3.31-12.2-3.31h-14.7V92.41Z" transform="translate(-87.22 -61.13)" fill="#0c7bb3"/><path d="M638.36,120.2a3.67,3.67,0,0,1-1.11-2.72V65.89a3.85,3.85,0,0,1,1.11-2.77A3.62,3.62,0,0,1,641.08,62h34.08a3.62,3.62,0,0,1,3.66,3.65,3.42,3.42,0,0,1-1.06,2.55,3.62,3.62,0,0,1-2.6,1H645V88H672.1a3.62,3.62,0,0,1,3.66,3.65,3.42,3.42,0,0,1-1.06,2.55,3.62,3.62,0,0,1-2.6,1H645v18.87h30.17a3.62,3.62,0,0,1,3.66,3.66,3.42,3.42,0,0,1-1.06,2.55,3.62,3.62,0,0,1-2.6,1H641.08A3.67,3.67,0,0,1,638.36,120.2Z" transform="translate(-87.22 -61.13)" fill="#0c7bb3"/><path d="M717.79,120.67a3.42,3.42,0,0,1-1.06-2.51,3.87,3.87,0,0,1,.76-2.38l19.64-24.14-19.47-24a3.85,3.85,0,0,1-.76-2.38,3.63,3.63,0,0,1,3.74-3.74,3.83,3.83,0,0,1,1.78.43,3.73,3.73,0,0,1,1.36,1.1l17.94,22.78,17.93-23a3.21,3.21,0,0,1,2.81-1.36,3.68,3.68,0,0,1,2.63,1.06,3.47,3.47,0,0,1,1.11,2.6,3.53,3.53,0,0,1-.68,2.12L745.88,91.56l19.64,24.14a3.16,3.16,0,0,1,.76,2.21,3.78,3.78,0,0,1-1.06,2.72,3.84,3.84,0,0,1-5.82-.51L741.21,97.25l-17.94,23a3.78,3.78,0,0,1-3,1.53A3.42,3.42,0,0,1,717.79,120.67Z" transform="translate(-87.22 -61.13)" fill="#0c7bb3"/></g></svg>